<svg xmlns="http://www.w3.org/2000/svg" xmlns:xlink="http://www.w3.org/1999/xlink" width="2000" zoomAndPan="magnify" viewBox="0 0 1500 1499.999933" height="2000" preserveAspectRatio="xMidYMid meet" version="1.0"><defs><clipPath id="8c53d2864d"><path d="M 0 1245 L 1499.25 1245 L 1499.25 1468.089844 L 0 1468.089844 Z M 0 1245 " clip-rule="nonzero"/></clipPath></defs><g clip-path="url(#8c53d2864d)"><path fill="#e9e9e9" d="M 749.195312 1245.824219 C 1163.339844 1245.824219 1499.566406 1295.652344 1499.566406 1357.0625 C 1499.566406 1418.445312 1163.339844 1468.300781 749.195312 1468.300781 C 335.050781 1468.300781 -1.175781 1418.476562 -1.175781 1357.0625 C -1.175781 1295.652344 335.050781 1245.824219 749.195312 1245.824219 Z M 749.195312 1245.824219 " fill-opacity="1" fill-rule="evenodd"/></g><path fill="#03a6ff" d="M 1056.039062 1325.875 C 1078.457031 1325.875 1096.617188 1307.71875 1096.617188 1285.296875 C 1096.617188 1094.15625 1096.617188 284.78125 1096.617188 93.640625 C 1096.617188 71.25 1078.457031 53.058594 1056.039062 53.058594 C 989.945312 53.058594 859.800781 53.058594 793.738281 53.058594 C 771.347656 53.058594 753.15625 71.21875 753.15625 93.640625 C 753.15625 284.78125 753.15625 1094.15625 753.15625 1285.296875 C 753.15625 1307.71875 771.316406 1325.875 793.738281 1325.875 C 859.800781 1325.875 989.945312 1325.875 1056.039062 1325.875 Z M 1056.039062 1325.875 " fill-opacity="1" fill-rule="evenodd"/><path fill="#2c1609" d="M 1056.039062 1335.960938 L 793.738281 1335.960938 C 765.792969 1335.960938 743.074219 1313.238281 743.074219 1285.296875 L 743.074219 93.609375 C 743.074219 65.667969 765.792969 42.945312 793.738281 42.945312 L 1056.039062 42.945312 C 1083.980469 42.945312 1106.703125 65.667969 1106.703125 93.609375 L 1106.703125 1285.296875 C 1106.703125 1313.238281 1083.980469 1335.960938 1056.039062 1335.960938 Z M 793.707031 63.175781 C 776.898438 63.175781 763.242188 76.832031 763.242188 93.640625 L 763.242188 1285.296875 C 763.242188 1302.105469 776.898438 1315.761719 793.707031 1315.761719 L 1056.007812 1315.761719 C 1072.816406 1315.761719 1086.472656 1302.105469 1086.472656 1285.296875 L 1086.472656 93.609375 C 1086.472656 76.800781 1072.816406 63.144531 1056.007812 63.144531 L 793.707031 63.144531 Z M 793.707031 63.175781 " fill-opacity="1" fill-rule="nonzero"/><path fill="#03a6ff" d="M 1308.253906 1325.875 C 1323.921875 1325.875 1336.617188 1309.609375 1336.617188 1289.558594 C 1336.617188 1118.378906 1336.617188 393.558594 1336.617188 222.410156 C 1336.617188 202.328125 1323.921875 186.089844 1308.253906 186.089844 C 1262.058594 186.089844 1171.113281 186.089844 1124.953125 186.089844 C 1109.285156 186.089844 1096.585938 202.359375 1096.585938 222.410156 C 1096.585938 393.589844 1096.585938 1118.40625 1096.585938 1289.558594 C 1096.585938 1309.609375 1109.285156 1325.875 1124.953125 1325.875 C 1171.113281 1325.875 1262.058594 1325.875 1308.253906 1325.875 Z M 1308.253906 1325.875 " fill-opacity="1" fill-rule="evenodd"/><path fill="#2c1609" d="M 1308.253906 1335.960938 L 1124.953125 1335.960938 C 1103.730469 1335.960938 1086.503906 1315.128906 1086.503906 1289.527344 L 1086.503906 222.378906 C 1086.503906 196.773438 1103.761719 175.945312 1124.953125 175.945312 L 1308.253906 175.945312 C 1329.472656 175.945312 1346.703125 196.773438 1346.703125 222.378906 L 1346.703125 1289.527344 C 1346.703125 1315.128906 1329.472656 1335.960938 1308.253906 1335.960938 Z M 1124.953125 196.144531 C 1115.078125 196.144531 1106.703125 208.152344 1106.703125 222.378906 L 1106.703125 1289.527344 C 1106.703125 1303.753906 1115.046875 1315.761719 1124.953125 1315.761719 L 1308.253906 1315.761719 C 1318.128906 1315.761719 1326.5 1303.753906 1326.5 1289.527344 L 1326.5 222.378906 C 1326.5 208.152344 1318.15625 196.144531 1308.253906 196.144531 Z M 1124.953125 196.144531 " fill-opacity="1" fill-rule="nonzero"/><path fill="#00fc88" d="M 290 1304.535156 C 311.039062 1312.21875 334.332031 1301.382812 342.015625 1280.34375 C 407.566406 1100.789062 685.113281 340.488281 750.667969 160.9375 C 758.351562 139.894531 747.515625 116.601562 726.476562 108.917969 C 685.625 94 621.121094 70.46875 580.273438 55.550781 C 559.230469 47.867188 535.941406 58.703125 528.257812 79.742188 C 462.703125 259.269531 185.15625 1019.566406 119.605469 1199.121094 C 111.921875 1220.160156 122.757812 1243.453125 143.796875 1251.136719 C 184.675781 1266.054688 249.148438 1289.617188 290 1304.535156 Z M 290 1304.535156 " fill-opacity="1" fill-rule="evenodd"/><path fill="#2c1609" d="M 303.957031 1317.113281 C 298.101562 1317.113281 292.21875 1316.089844 286.546875 1314.019531 L 140.34375 1260.652344 C 114.082031 1251.078125 100.546875 1221.902344 110.121094 1195.667969 C 175.671875 1016.113281 453.21875 255.816406 518.773438 76.261719 C 528.347656 49.996094 557.519531 36.460938 583.753906 46.035156 L 729.957031 99.402344 C 742.683594 104.054688 752.828125 113.359375 758.53125 125.636719 C 764.234375 137.914062 764.832031 151.660156 760.179688 164.386719 C 694.628906 343.941406 417.082031 1104.242188 351.53125 1283.792969 C 346.878906 1296.519531 337.574219 1306.667969 325.296875 1312.371094 C 318.484375 1315.519531 311.21875 1317.113281 303.957031 1317.113281 Z M 566.40625 63.175781 C 553.980469 63.175781 542.273438 70.859375 537.773438 83.195312 C 472.21875 262.75 194.640625 1023.046875 129.121094 1202.601562 C 123.355469 1218.390625 131.519531 1235.890625 147.277344 1241.652344 L 293.480469 1295.019531 C 301.132812 1297.8125 309.386719 1297.453125 316.773438 1294.03125 C 324.15625 1290.609375 329.738281 1284.484375 332.53125 1276.859375 C 398.082031 1097.308594 675.628906 337.007812 741.183594 157.453125 C 743.972656 149.800781 743.613281 141.546875 740.191406 134.164062 C 736.769531 126.777344 730.675781 121.195312 723.023438 118.402344 L 576.820312 65.035156 C 573.367188 63.773438 569.855469 63.175781 566.40625 63.175781 Z M 566.40625 63.175781 " fill-opacity="1" fill-rule="nonzero"/><path fill="#03a6ff" d="M 753.15625 172.671875 L 1096.585938 172.671875 L 1096.585938 1206.265625 L 753.15625 1206.265625 Z M 753.15625 172.671875 " fill-opacity="1" fill-rule="evenodd"/><path fill="#2c1609" d="M 1096.585938 1216.378906 L 753.15625 1216.378906 C 747.574219 1216.378906 743.042969 1211.847656 743.042969 1206.265625 L 743.042969 172.671875 C 743.042969 167.089844 747.574219 162.558594 753.15625 162.558594 L 1096.617188 162.558594 C 1102.199219 162.558594 1106.734375 167.089844 1106.734375 172.671875 L 1106.734375 1206.265625 C 1106.703125 1211.847656 1102.171875 1216.378906 1096.585938 1216.378906 Z M 763.242188 1196.148438 L 1086.472656 1196.148438 L 1086.472656 182.757812 L 763.242188 182.757812 Z M 763.242188 1196.148438 " fill-opacity="1" fill-rule="nonzero"/><path fill="#03a6ff" d="M 1096.585938 293.15625 L 1336.617188 293.15625 L 1336.617188 1218.75 L 1096.585938 1218.75 Z M 1096.585938 293.15625 " fill-opacity="1" fill-rule="evenodd"/><path fill="#2c1609" d="M 1336.617188 1228.867188 L 1096.617188 1228.867188 C 1091.035156 1228.867188 1086.503906 1224.332031 1086.503906 1218.75 L 1086.503906 293.15625 C 1086.503906 287.574219 1091.035156 283.039062 1096.617188 283.039062 L 1336.617188 283.039062 C 1342.199219 283.039062 1346.730469 287.574219 1346.730469 293.15625 L 1346.730469 1218.75 C 1346.703125 1224.332031 1342.199219 1228.867188 1336.617188 1228.867188 Z M 1106.703125 1208.636719 L 1326.5 1208.636719 L 1326.5 303.269531 L 1106.703125 303.269531 Z M 1106.703125 1208.636719 " fill-opacity="1" fill-rule="nonzero"/><path fill="#00fc88" d="M 369.117188 1206.082031 L 723.5625 235.164062 L 501.152344 153.972656 L 146.707031 1124.890625 Z M 369.117188 1206.082031 " fill-opacity="1" fill-rule="evenodd"/><path fill="#2c1609" d="M 369.117188 1216.199219 C 367.949219 1216.199219 366.777344 1215.988281 365.667969 1215.597656 L 143.257812 1134.40625 C 140.734375 1133.476562 138.695312 1131.613281 137.554688 1129.183594 C 136.414062 1126.753906 136.292969 1123.960938 137.222656 1121.4375 L 491.667969 150.492188 C 492.597656 147.96875 494.460938 145.929688 496.890625 144.789062 C 499.324219 143.648438 502.113281 143.527344 504.636719 144.457031 L 727.046875 225.648438 C 732.296875 227.570312 735 233.363281 733.078125 238.617188 L 378.632812 1209.566406 C 377.703125 1212.085938 375.839844 1214.128906 373.410156 1215.269531 C 372.058594 1215.867188 370.589844 1216.199219 369.117188 1216.199219 Z M 159.675781 1118.859375 L 363.085938 1193.117188 L 710.597656 241.199219 L 507.1875 166.9375 Z M 159.675781 1118.859375 " fill-opacity="1" fill-rule="nonzero"/><path fill="#03a6ff" d="M 753.15625 266.410156 L 1096.585938 266.410156 L 1096.585938 1112.523438 L 753.15625 1112.523438 Z M 753.15625 266.410156 " fill-opacity="1" fill-rule="evenodd"/><path fill="#2c1609" d="M 1096.585938 1122.640625 L 753.15625 1122.640625 C 747.574219 1122.640625 743.042969 1118.109375 743.042969 1112.523438 L 743.042969 266.410156 C 743.042969 260.828125 747.574219 256.296875 753.15625 256.296875 L 1096.617188 256.296875 C 1102.199219 256.296875 1106.734375 260.828125 1106.734375 266.410156 L 1106.734375 1112.523438 C 1106.703125 1118.109375 1102.171875 1122.640625 1096.585938 1122.640625 Z M 763.242188 1102.410156 L 1086.472656 1102.410156 L 1086.472656 276.527344 L 763.242188 276.527344 Z M 763.242188 1102.410156 " fill-opacity="1" fill-rule="nonzero"/><path fill="#03a6ff" d="M 1096.585938 377.109375 L 1336.617188 377.109375 L 1336.617188 1134.796875 L 1096.585938 1134.796875 Z M 1096.585938 377.109375 " fill-opacity="1" fill-rule="evenodd"/><path fill="#2c1609" d="M 1336.617188 1144.910156 L 1096.617188 1144.910156 C 1091.035156 1144.910156 1086.503906 1140.378906 1086.503906 1134.796875 L 1086.503906 377.109375 C 1086.503906 371.527344 1091.035156 366.992188 1096.617188 366.992188 L 1336.617188 366.992188 C 1342.199219 366.992188 1346.730469 371.527344 1346.730469 377.109375 L 1346.730469 1134.828125 C 1346.703125 1140.378906 1342.199219 1144.910156 1336.617188 1144.910156 Z M 1106.703125 1124.710938 L 1326.5 1124.710938 L 1326.5 387.226562 L 1106.703125 387.226562 Z M 1106.703125 1124.710938 " fill-opacity="1" fill-rule="nonzero"/><path fill="#00fc88" d="M 401.265625 1118.015625 L 691.417969 323.230469 L 469.007812 242.039062 L 178.855469 1036.824219 Z M 401.265625 1118.015625 " fill-opacity="1" fill-rule="evenodd"/><path fill="#2c1609" d="M 401.265625 1128.132812 C 400.09375 1128.132812 398.921875 1127.921875 397.78125 1127.53125 L 175.371094 1046.339844 C 170.121094 1044.417969 167.417969 1038.625 169.339844 1033.375 L 459.492188 238.558594 C 461.414062 233.304688 467.207031 230.601562 472.460938 232.523438 L 694.867188 313.714844 C 697.390625 314.648438 699.429688 316.507812 700.570312 318.9375 C 701.710938 321.371094 701.832031 324.160156 700.902344 326.683594 L 410.75 1121.5 C 409.816406 1124.019531 407.957031 1126.0625 405.527344 1127.203125 C 404.207031 1127.832031 402.734375 1128.132812 401.265625 1128.132812 Z M 191.820312 1030.792969 L 395.230469 1105.050781 L 678.449219 329.234375 L 475.039062 254.976562 Z M 191.820312 1030.792969 " fill-opacity="1" fill-rule="nonzero"/></svg>